<?xml version="1.0" encoding="UTF-8"?> <svg xmlns="http://www.w3.org/2000/svg" xmlns:xlink="http://www.w3.org/1999/xlink" width="100" height="36" version="1.1" id="Layer_1" x="0px" y="0px" viewBox="0 0 71.8 26.3" style="enable-background:new 0 0 71.8 26.3;" xml:space="preserve"> <style type="text/css"> .st0{clip-path:url(#SVGID_2_);} .st1{fill:#EF5661;} .st2{fill:#76787A;} .st3{fill:none;stroke:#76787A;stroke-width:2;stroke-miterlimit:10;} .st4{clip-path:url(#SVGID_4_);fill:#76787A;} .st5{clip-path:url(#SVGID_6_);fill:#76787A;} </style> <g id="Layer_1_1_"> </g> <g id="Layer_4"> <g> <g> <defs> <rect id="SVGID_1_" x="34.2" y="0" width="37.6" height="26.3"></rect> </defs> <clipPath id="SVGID_2_"> <use xlink:href="#SVGID_1_" style="overflow:visible;"></use> </clipPath> <g class="st0"> <path class="st1" d="M56.9,18.8h2v-14h-2V18.8z"></path> <path class="st2" d="M30.9,19.8h2v-11h-2C30.9,8.8,30.9,19.8,30.9,19.8z M14.9,19.8h2v-11h-2V19.8z"></path> <g> <path class="st1" d="M68.5,16.7H64c-0.6,0-1.2-0.6-1.2-1.2V12c0-0.6,0.5-1.1,1.2-1.1h4.5C68.5,11,68.5,16.7,68.5,16.7z M63.4,8.8c-1.6,0-2.8,1.3-2.8,2.8v4.6c0,1.6,1.2,2.8,2.8,2.8h7.4V8.8H63.4z M52.7,16.7h-4.5c-0.6,0-1.2-0.6-1.2-1.2V12 c0-0.6,0.5-1.1,1.2-1.1h4.5C52.7,11,52.7,16.7,52.7,16.7z M47.6,8.8c-1.6,0-2.8,1.3-2.8,2.8v4.6c0,1.6,1.2,2.8,2.8,2.8H55V8.8 H47.6z"></path> <path class="st1" d="M34.5,19h2.2V4.8h-2.2V19z"></path> <path class="st1" d="M43.9,8.8H41l-4.2,5.1L41,19h2.9l-4.2-5.1L43.9,8.8z"></path> <path class="st2" d="M21,15.5V12c0-0.6,0.5-1.1,1.2-1.1h4.5v5.7h-4.5C21.6,16.7,21,16.1,21,15.5z M28.9,8.8h-7.4 c-1.6,0-2.8,1.3-2.8,2.8v4.6c0,1.6,1.2,2.8,2.8,2.8h7.4V8.8L28.9,8.8z"></path> <path class="st2" d="M26.7,16.5v3c0,0.6-0.6,1.2-1.2,1.2H21l1.7,2.3h3.4c1.6,0,2.8-1.2,2.8-2.8v-3.7H26.7z M14.8,7H17V4.8h-2.2 V7z M30.6,7h2.2V4.8h-2.2C30.6,4.8,30.6,7,30.6,7z M10.8,16.7H6.3c-0.6,0-1.2-0.5-1.2-1.1v-0.1V12c0-0.6,0.5-1.1,1.2-1.1h4.5 V16.7L10.8,16.7z M10.8,4.8v4H5.7c-1.6,0-2.8,1.2-2.8,2.8v4.6c0,1.6,1.2,2.8,2.8,2.8h7.4V4.8H10.8z"></path> </g> </g> </g> </g> </g> <g id="Layer_2_1_"> <path class="st3" d="M1,18.9V9.8h6.2c0.8,0,1.5,0.7,1.5,1.5V19"></path> </g> <g id="Layer_3"> <g> <g> <g> <defs> <rect id="SVGID_3_" x="10.6" y="8.4" width="8.6" height="11"></rect> </defs> <clipPath id="SVGID_4_"> <use xlink:href="#SVGID_3_" style="overflow:visible;"></use> </clipPath> <path class="st4" d="M19.3,10.8V17h-5.5c-0.4,0-0.7-0.3-0.7-0.7v-4.9c0-0.4,0.3-0.7,0.7-0.7h5.5 M21.3,8.8h-8.1 c-1.1,0-2.1,0.9-2.1,2.1V17c0,1.1,0.9,2.1,2.1,2.1h8.1V8.8L21.3,8.8z"></path> </g> </g> <g> <g> <defs> <polygon id="SVGID_5_" points="15.5,14.1 14.1,12.2 15.4,9.7 20.5,9.7 20.5,14.1 "></polygon> </defs> <clipPath id="SVGID_6_"> <use xlink:href="#SVGID_5_" style="overflow:visible;"></use> </clipPath> <path class="st5" d="M17.8,14h-3.4v-1.3h2.9c0.3,0,0.6-0.3,0.6-0.6v-1.4h1.3v1.9C19.2,13.3,18.6,14,17.8,14z"></path> </g> </g> </g> </g> <g id="Layer_5"> <polygon class="st2" points="30.5,19 28.6,19 26.7,12.6 24.8,18.9 22.9,19 20.1,10.5 21.7,8.8 23.8,15.3 25.8,8.8 27.7,8.8 29.6,15.2 31.9,8.8 33.2,10.5 "></polygon> </g> </svg> 